<svg width="142" height="33" viewBox="0 0 142 33" fill="none" xmlns="http://www.w3.org/2000/svg">
<g clip-path="url(#clip0_4_132)">
<path d="M3.66666 23.8333C3.66666 23.8333 6.1111 28.7222 13.4444 28.7222C23.2222 28.7222 25.6667 18.9444 13.4444 18.9444C1.22221 18.9444 3.66666 9.16663 13.4444 9.16663C20.7778 9.16663 23.2222 14.0555 23.2222 14.0555" stroke="url(#paint0_linear_4_132)" stroke-width="7.33333" stroke-linecap="round"/>
<path d="M4.88889 10.3889C7.58895 10.3889 9.77778 8.20003 9.77778 5.49997C9.77778 2.79991 7.58895 0.611084 4.88889 0.611084C2.18883 0.611084 0 2.79991 0 5.49997C0 8.20003 2.18883 10.3889 4.88889 10.3889Z" fill="#71FF97"/>
</g>
<path d="M40.2869 26.5109C39.4802 26.5109 38.7453 26.4123 38.082 26.2151C37.4367 26.0179 36.863 25.767 36.3611 25.4622C35.8771 25.1575 35.4648 24.8438 35.1242 24.5211C34.7836 24.1984 34.5327 23.9027 34.3713 23.6338C34.1383 23.3111 33.9859 23.0243 33.9142 22.7733C33.8425 22.5224 33.8604 22.2804 33.968 22.0473C34.0935 21.7964 34.3176 21.5364 34.6402 21.2676C34.9629 20.9807 35.2587 20.8373 35.5276 20.8373C35.8144 20.8194 36.0833 20.9001 36.3342 21.0793C36.6031 21.2586 36.863 21.5096 37.114 21.8322C37.5442 22.4059 38.0282 22.8181 38.566 23.0691C39.1038 23.3021 39.6416 23.4187 40.1793 23.4187C40.8784 23.4187 41.4879 23.329 42.0078 23.1498C42.5276 22.9526 42.931 22.6658 43.2178 22.2893C43.5225 21.9129 43.6749 21.4289 43.6749 20.8373C43.6749 20.3533 43.5225 19.959 43.2178 19.6542C42.931 19.3316 42.5456 19.0627 42.0616 18.8476C41.5776 18.6145 41.0308 18.4084 40.4213 18.2291C39.8298 18.0319 39.2293 17.8168 38.6198 17.5838C38.1896 17.4404 37.7593 17.2701 37.3291 17.0729C36.8989 16.8578 36.4956 16.6158 36.1191 16.3469C35.7606 16.078 35.4379 15.7643 35.1511 15.4058C34.8822 15.0293 34.6671 14.5991 34.5058 14.1151C34.3444 13.6311 34.2638 13.0664 34.2638 12.4211C34.2638 11.3993 34.5147 10.503 35.0167 9.73222C35.5186 8.94348 36.2177 8.32504 37.114 7.87689C38.0103 7.41081 39.0321 7.17778 40.1793 7.17778C40.9143 7.17778 41.5686 7.24948 42.1422 7.39289C42.7338 7.51837 43.2357 7.68866 43.648 7.90378C44.0782 8.10096 44.4278 8.30711 44.6967 8.52222C44.9835 8.71941 45.1896 8.8897 45.3151 9.03311C45.7274 9.44541 45.9515 9.79496 45.9873 10.0818C46.0411 10.3507 45.8798 10.7181 45.5033 11.1842C45.1269 11.6682 44.7594 11.9371 44.4009 11.9909C44.0603 12.0267 43.6749 11.8833 43.2447 11.5607C42.9579 11.2559 42.671 11.0139 42.3842 10.8347C42.0974 10.6375 41.7747 10.4941 41.4162 10.4044C41.0756 10.3148 40.6544 10.27 40.1524 10.27C39.7939 10.27 39.4444 10.3238 39.1038 10.4313C38.7811 10.521 38.5033 10.6644 38.2702 10.8616C38.0372 11.0408 37.849 11.2649 37.7056 11.5338C37.5801 11.8027 37.5173 12.1074 37.5173 12.448C37.5173 12.9141 37.6428 13.2995 37.8938 13.6042C38.1627 13.891 38.5212 14.133 38.9693 14.3302C39.4175 14.5095 39.9194 14.6798 40.4751 14.8411C41.0308 15.0024 41.5955 15.1727 42.1691 15.352C42.7607 15.5492 43.3433 15.7822 43.9169 16.0511C44.4905 16.32 45.0014 16.6606 45.4496 17.0729C45.8977 17.4673 46.2562 17.9692 46.5251 18.5787C46.794 19.1702 46.9284 19.8962 46.9284 20.7567C46.9284 21.7426 46.7402 22.603 46.3638 23.338C45.9873 24.073 45.4764 24.6735 44.8311 25.1396C44.1858 25.6056 43.4687 25.9462 42.68 26.1613C41.8913 26.3944 41.0936 26.5109 40.2869 26.5109ZM54.6672 26.242C53.8426 26.242 53.0807 26.0986 52.3816 25.8118C51.7005 25.507 51.0999 25.0768 50.5801 24.5211C50.0602 23.9654 49.6569 23.3021 49.3701 22.5313C49.0833 21.7605 48.9399 20.909 48.9399 19.9769V14.626C48.9399 14.3213 48.9667 14.0524 49.0205 13.8193C49.0743 13.5684 49.2177 13.3712 49.4507 13.2278C49.6838 13.0844 50.0423 13.0127 50.5263 13.0127C51.0462 13.0127 51.4136 13.0844 51.6287 13.2278C51.8618 13.3712 52.0052 13.5684 52.059 13.8193C52.1127 14.0703 52.1396 14.3481 52.1396 14.6529V19.9769C52.1396 20.6222 52.2472 21.1779 52.4623 21.644C52.6953 22.1101 53.027 22.4776 53.4572 22.7464C53.8874 22.9974 54.4162 23.1229 55.0436 23.1229C55.689 23.1229 56.2357 22.9974 56.6839 22.7464C57.1499 22.4776 57.5085 22.1101 57.7594 21.644C58.0104 21.16 58.1359 20.6043 58.1359 19.9769V14.5991C58.1359 14.2944 58.1627 14.0255 58.2165 13.7924C58.2703 13.5415 58.4137 13.3533 58.6467 13.2278C58.8798 13.0844 59.2473 13.0127 59.7492 13.0127C60.2511 13.0127 60.6096 13.0844 60.8247 13.2278C61.0399 13.3712 61.1743 13.5684 61.2281 13.8193C61.2998 14.0703 61.3356 14.3392 61.3356 14.626V24.7093C61.3356 24.9782 61.2998 25.2292 61.2281 25.4622C61.1743 25.6953 61.0309 25.8835 60.7979 26.0269C60.5827 26.1703 60.2242 26.242 59.7223 26.242C59.3638 26.242 59.077 26.1972 58.8619 26.1076C58.6647 26.0359 58.5123 25.9373 58.4047 25.8118C58.3151 25.6684 58.2524 25.525 58.2165 25.3816C58.1986 25.2381 58.1896 25.0947 58.1896 24.9513L58.4047 24.2253C58.2972 24.3867 58.1359 24.5839 57.9207 24.8169C57.7056 25.032 57.4367 25.2561 57.1141 25.4891C56.8093 25.7042 56.4508 25.8835 56.0385 26.0269C55.6262 26.1703 55.1691 26.242 54.6672 26.242ZM70.9022 26.242C70.0238 26.242 69.2351 26.0717 68.536 25.7311C67.8548 25.3726 67.2722 24.8886 66.7882 24.2791C66.3221 23.6696 65.9636 22.9705 65.7126 22.1818C65.4796 21.3751 65.3631 20.5147 65.3631 19.6004C65.381 18.6862 65.5155 17.8347 65.7664 17.046C66.0174 16.2393 66.3759 15.5402 66.842 14.9487C67.326 14.3392 67.9086 13.8641 68.5898 13.5236C69.2709 13.183 70.0418 13.0127 70.9022 13.0127C71.7268 13.0127 72.4976 13.183 73.2146 13.5236C73.9496 13.8641 74.5949 14.3392 75.1506 14.9487C75.7243 15.5402 76.1724 16.2393 76.4951 17.046C76.8178 17.8347 76.9791 18.6773 76.9791 19.5736C76.9791 20.5057 76.8178 21.3841 76.4951 22.2087C76.1724 23.0153 75.7332 23.7234 75.1775 24.3329C74.6218 24.9244 73.9765 25.3905 73.2415 25.7311C72.5066 26.0717 71.7268 26.242 70.9022 26.242ZM70.472 23.096C71.0994 23.096 71.6641 22.9526 72.166 22.6658C72.6679 22.361 73.0623 21.9487 73.3491 21.4289C73.6538 20.909 73.8062 20.3175 73.8062 19.6542C73.8062 18.973 73.6538 18.3725 73.3491 17.8527C73.0623 17.3149 72.6679 16.9026 72.166 16.6158C71.6641 16.311 71.0994 16.1587 70.472 16.1587C69.8625 16.1587 69.3068 16.311 68.8049 16.6158C68.3029 16.9205 67.8996 17.3328 67.5949 17.8527C67.3081 18.3725 67.1646 18.973 67.1646 19.6542C67.1646 20.3175 67.3081 20.909 67.5949 21.4289C67.8996 21.9487 68.3029 22.361 68.8049 22.6658C69.3068 22.9526 69.8625 23.096 70.472 23.096ZM65.4975 26.2689C65.0135 26.2689 64.655 26.1882 64.422 26.0269C64.1889 25.8835 64.0455 25.6953 63.9918 25.4622C63.938 25.2113 63.9111 24.9334 63.9111 24.6287V8.60289C63.9111 8.29815 63.938 8.02926 63.9918 7.79622C64.0455 7.54526 64.1889 7.34807 64.422 7.20466C64.655 7.06126 65.0135 6.98955 65.4975 6.98955C65.9995 6.98955 66.358 7.06126 66.5731 7.20466C66.7882 7.34807 66.9226 7.54526 66.9764 7.79622C67.0302 8.04718 67.0571 8.31607 67.0571 8.60289V25.1664C66.9854 25.5608 66.833 25.8387 66.6 26C66.3849 26.1793 66.0174 26.2689 65.4975 26.2689ZM90.2118 7.44666C90.4807 7.44666 90.7137 7.47355 90.9109 7.52733C91.126 7.58111 91.2963 7.71555 91.4218 7.93067C91.5473 8.12785 91.61 8.45052 91.61 8.89867C91.61 9.34681 91.5473 9.67844 91.4218 9.89355C91.2963 10.0907 91.126 10.2162 90.9109 10.27C90.6958 10.3059 90.4538 10.3238 90.1849 10.3238H85.2373V24.6556C85.2373 24.9603 85.2015 25.2381 85.1298 25.4891C85.076 25.7221 84.9326 25.9104 84.6996 26.0538C84.4845 26.1972 84.117 26.2689 83.5971 26.2689C83.1131 26.2689 82.7546 26.1882 82.5216 26.0269C82.2885 25.8835 82.1451 25.6953 82.0913 25.4622C82.0376 25.2113 82.0107 24.9334 82.0107 24.6287V10.3238H77.0093C76.7584 10.3238 76.5253 10.2969 76.3102 10.2431C76.0951 10.1893 75.9159 10.0639 75.7725 9.86667C75.647 9.66948 75.5842 9.34681 75.5842 8.89867C75.5842 8.45052 75.647 8.12785 75.7725 7.93067C75.8979 7.71555 76.0682 7.58111 76.2833 7.52733C76.5164 7.47355 76.7584 7.44666 77.0093 7.44666H90.2118ZM92.1782 26.2689C91.6942 26.2689 91.3357 26.1882 91.1027 26.0269C90.8876 25.8835 90.7531 25.6863 90.6994 25.4353C90.6456 25.1844 90.6187 24.9065 90.6187 24.6018V14.626C90.6187 14.3033 90.6456 14.0255 90.6994 13.7924C90.7531 13.5415 90.8876 13.3533 91.1027 13.2278C91.3357 13.0844 91.7032 13.0127 92.2051 13.0127C92.6891 13.0127 93.0387 13.0754 93.2538 13.2009C93.4868 13.3264 93.6302 13.4877 93.684 13.6849C93.7557 13.8641 93.7916 14.0434 93.7916 14.2227L93.5765 14.7067C93.6661 14.5633 93.7916 14.393 93.9529 14.1958C94.1142 13.9807 94.3294 13.7745 94.5982 13.5773C94.8671 13.3622 95.1898 13.1919 95.5662 13.0664C95.9427 12.923 96.3908 12.8513 96.9107 12.8513C97.1258 12.8513 97.3499 12.8782 97.5829 12.932C97.8339 12.9679 98.0759 13.0306 98.3089 13.1202C98.5599 13.1919 98.7839 13.2905 98.9811 13.416C99.1783 13.5415 99.3307 13.6939 99.4382 13.8731C99.5458 14.0344 99.5996 14.2227 99.5996 14.4378C99.5996 15.0114 99.4562 15.4954 99.1694 15.8898C98.8825 16.2841 98.5419 16.4813 98.1476 16.4813C97.8787 16.4813 97.6815 16.4544 97.556 16.4007C97.4305 16.3469 97.323 16.2841 97.2334 16.2124C97.1617 16.1407 97.0451 16.078 96.8838 16.0242C96.7404 15.9704 96.5074 15.9436 96.1847 15.9436C95.9158 15.9436 95.6379 15.9884 95.3511 16.078C95.0822 16.1676 94.8313 16.3021 94.5982 16.4813C94.3652 16.6606 94.177 16.8936 94.0336 17.1804C93.8902 17.4493 93.8185 17.763 93.8185 18.1216V24.6556C93.8185 24.9603 93.7916 25.2381 93.7378 25.4891C93.684 25.7221 93.5406 25.9104 93.3076 26.0538C93.0745 26.1972 92.6981 26.2689 92.1782 26.2689ZM111.7 26.2151C111.18 26.2151 110.794 26.1165 110.543 25.9193C110.292 25.7221 110.167 25.4533 110.167 25.1127L110.355 24.2253C110.212 24.4584 109.97 24.7362 109.629 25.0589C109.289 25.3636 108.84 25.6415 108.285 25.8924C107.729 26.1255 107.057 26.242 106.268 26.242C105.426 26.242 104.628 26.0717 103.875 25.7311C103.14 25.3726 102.486 24.8886 101.912 24.2791C101.356 23.6517 100.908 22.9436 100.568 22.1549C100.245 21.3482 100.084 20.4878 100.084 19.5736C100.084 18.6952 100.245 17.8706 100.568 17.0998C100.908 16.311 101.365 15.6119 101.939 15.0024C102.513 14.393 103.167 13.9179 103.902 13.5773C104.655 13.2188 105.443 13.0396 106.268 13.0396C107.003 13.0396 107.621 13.1381 108.123 13.3353C108.643 13.5325 109.082 13.7835 109.441 14.0882C109.799 14.375 110.095 14.6798 110.328 15.0024L110.167 14.2227C110.167 13.8283 110.292 13.5325 110.543 13.3353C110.794 13.1202 111.189 13.0127 111.726 13.0127C112.228 13.0127 112.587 13.0933 112.802 13.2547C113.017 13.3981 113.152 13.6042 113.205 13.8731C113.259 14.1241 113.286 14.4109 113.286 14.7336V24.5749C113.286 24.8796 113.259 25.1575 113.205 25.4084C113.152 25.6594 113.008 25.8566 112.775 26C112.56 26.1434 112.202 26.2151 111.7 26.2151ZM106.752 23.096C107.362 23.096 107.908 22.9436 108.392 22.6389C108.876 22.3341 109.262 21.9219 109.548 21.402C109.853 20.8642 110.006 20.2727 110.006 19.6273C110.006 18.9282 109.853 18.3187 109.548 17.7989C109.244 17.279 108.84 16.8757 108.338 16.5889C107.854 16.2841 107.308 16.1318 106.698 16.1318C106.035 16.1318 105.443 16.2931 104.924 16.6158C104.404 16.9205 103.991 17.3418 103.687 17.8796C103.4 18.3994 103.256 18.991 103.256 19.6542C103.256 20.2996 103.409 20.8821 103.714 21.402C104.018 21.9219 104.431 22.3341 104.95 22.6389C105.488 22.9436 106.089 23.096 106.752 23.096ZM122.384 26.3227C121.523 26.3227 120.681 26.1793 119.856 25.8924C119.049 25.5877 118.314 25.1485 117.651 24.5749C117.006 24.0013 116.486 23.3021 116.092 22.4776C115.715 21.635 115.527 20.685 115.527 19.6273C115.527 18.5697 115.715 17.6286 116.092 16.804C116.486 15.9794 117.006 15.2803 117.651 14.7067C118.296 14.133 119.022 13.6939 119.829 13.3891C120.636 13.0844 121.469 12.932 122.33 12.932C122.957 12.932 123.549 13.0216 124.104 13.2009C124.678 13.3801 125.171 13.5953 125.583 13.8462C125.996 14.0972 126.291 14.3481 126.471 14.5991C126.704 14.8142 126.901 15.0204 127.062 15.2176C127.224 15.4147 127.277 15.6567 127.224 15.9436C127.17 16.1228 127.089 16.2931 126.982 16.4544C126.874 16.5979 126.74 16.7502 126.578 16.9116C126.148 17.3956 125.727 17.5748 125.314 17.4493C125.081 17.3239 124.848 17.1894 124.615 17.046C124.382 16.9026 124.14 16.7681 123.889 16.6427C123.656 16.4993 123.414 16.3827 123.163 16.2931C122.912 16.2035 122.634 16.1587 122.33 16.1587C121.649 16.1587 121.039 16.311 120.501 16.6158C119.981 16.9026 119.569 17.3059 119.264 17.8258C118.978 18.3456 118.834 18.9461 118.834 19.6273C118.834 20.3085 118.978 20.918 119.264 21.4558C119.569 21.9756 119.981 22.3879 120.501 22.6927C121.021 22.9795 121.613 23.1229 122.276 23.1229C122.599 23.1229 122.903 23.087 123.19 23.0153C123.495 22.9257 123.764 22.8181 123.997 22.6927C124.23 22.5493 124.418 22.4059 124.562 22.2624C124.759 22.137 124.938 22.0204 125.099 21.9129C125.261 21.8053 125.431 21.7516 125.61 21.7516C125.825 21.7516 126.031 21.8322 126.229 21.9936C126.444 22.137 126.677 22.37 126.928 22.6927C127.161 22.9616 127.286 23.2215 127.304 23.4724C127.34 23.7234 127.286 23.9654 127.143 24.1984C127.017 24.4315 126.802 24.6466 126.498 24.8438C126.282 25.0589 125.96 25.283 125.53 25.516C125.117 25.7311 124.633 25.9193 124.078 26.0807C123.54 26.242 122.975 26.3227 122.384 26.3227ZM140.153 23.3649C140.619 23.7593 140.861 24.1267 140.879 24.4673C140.914 24.8079 140.735 25.2023 140.341 25.6504C140.036 25.991 139.767 26.2151 139.534 26.3227C139.301 26.4302 139.068 26.4302 138.835 26.3227C138.602 26.233 138.324 26.0538 138.002 25.7849L132.866 21.4558V24.6556C132.866 24.9424 132.83 25.2113 132.758 25.4622C132.704 25.7132 132.561 25.9104 132.328 26.0538C132.113 26.1972 131.754 26.2689 131.252 26.2689C130.75 26.2689 130.383 26.1882 130.15 26.0269C129.935 25.8835 129.8 25.6863 129.747 25.4353C129.693 25.1844 129.666 24.9155 129.666 24.6287V8.576C129.666 8.27126 129.693 8.00237 129.747 7.76933C129.818 7.51837 129.962 7.32118 130.177 7.17778C130.41 7.01644 130.777 6.93578 131.279 6.93578C131.781 6.93578 132.14 7.01644 132.355 7.17778C132.57 7.32118 132.704 7.51837 132.758 7.76933C132.83 8.00237 132.866 8.28022 132.866 8.60289V17.4224L136.576 13.8193C136.863 13.5504 137.132 13.3712 137.383 13.2816C137.634 13.174 137.876 13.165 138.109 13.2547C138.36 13.3264 138.62 13.5146 138.889 13.8193C139.337 14.3033 139.552 14.7067 139.534 15.0293C139.516 15.3341 139.292 15.7016 138.862 16.1318L135.232 19.4929L140.153 23.3649Z" fill="#101D2C"/>
<defs>
<linearGradient id="paint0_linear_4_132" x1="15.8889" y1="16.5" x2="3.66665" y2="33.6111" gradientUnits="userSpaceOnUse">
<stop stop-color="#01AFBC"/>
<stop offset="1" stop-color="#45FFE0"/>
</linearGradient>
<clipPath id="clip0_4_132">
<rect width="26.8889" height="31.7778" fill="white" transform="translate(0 0.611084)"/>
</clipPath>
</defs>
</svg>
