<svg width="22" height="26" viewBox="0 0 22 26" fill="none" xmlns="http://www.w3.org/2000/svg">
<g clip-path="url(#clip0_4_129)">
<path d="M3 19C3 19 5 23 11 23C19 23 21 15 11 15C1 15 3 7 11 7C17 7 19 11 19 11" stroke="url(#paint0_linear_4_129)" stroke-width="6" stroke-linecap="round"/>
<path d="M4 8C6.20914 8 8 6.20914 8 4C8 1.79086 6.20914 0 4 0C1.79086 0 0 1.79086 0 4C0 6.20914 1.79086 8 4 8Z" fill="#71FF97"/>
</g>
<defs>
<linearGradient id="paint0_linear_4_129" x1="13" y1="13" x2="3" y2="27" gradientUnits="userSpaceOnUse">
<stop stop-color="#01AFBC"/>
<stop offset="1" stop-color="#45FFE0"/>
</linearGradient>
<clipPath id="clip0_4_129">
<rect width="22" height="26" fill="white"/>
</clipPath>
</defs>
</svg>
